<svg xmlns="http://www.w3.org/2000/svg" id="prefix__Layer_1" width="266.518" height="100.264" data-name="Layer 1" viewBox="0 0 266.518 100.264">
    <defs>
        <style>
            .prefix__cls-1{fill:#ee615f}
        </style>
    </defs>
    <path id="prefix__Path_1" d="M12.276 317.27a4.936 4.936 0 0 1-2.1 1.777 7.6 7.6 0 0 1-3.272.651 8.01 8.01 0 0 1-4.8-1.363 5 5 0 0 1-2.05-3.99h5.4q.116 1.4 1.236 1.4a.938.938 0 0 0 .632-.207.753.753 0 0 0 .24-.6 1.007 1.007 0 0 0-.585-.9 11.311 11.311 0 0 0-1.89-.767 17.723 17.723 0 0 1-2.547-1.031 5.152 5.152 0 0 1-1.774-1.559 4.988 4.988 0 0 1 .072-5.38 5.021 5.021 0 0 1 2.221-1.683 8.379 8.379 0 0 1 3.173-.571 7.287 7.287 0 0 1 4.627 1.349 5.1 5.1 0 0 1 1.879 3.9H7.25c-.077-.855-.43-1.283-1.054-1.283a.731.731 0 0 0-.527.193.767.767 0 0 0-.207.585.979.979 0 0 0 .585.858 11.53 11.53 0 0 0 1.818.767 19.678 19.678 0 0 1 2.58 1.09 5.275 5.275 0 0 1 1.785 1.581 4.373 4.373 0 0 1 .77 2.664 4.566 4.566 0 0 1-.72 2.519z" class="prefix__cls-1" data-name="Path 1" transform="translate(-.014 -219.436)"/>
    <path id="prefix__Path_2" d="M68.726 304.242a6.972 6.972 0 0 1 2.7 2.235 8.07 8.07 0 0 1 1.379 3.366h-5.357a2.9 2.9 0 0 0-1.04-1.247 2.759 2.759 0 0 0-1.548-.447 2.425 2.425 0 0 0-2.022.971 4.883 4.883 0 0 0 0 5.176 2.431 2.431 0 0 0 2.028.963 2.759 2.759 0 0 0 1.548-.447 2.9 2.9 0 0 0 1.035-1.255h5.361a8.1 8.1 0 0 1-1.38 3.366 6.988 6.988 0 0 1-2.7 2.232 8.658 8.658 0 0 1-3.76.792 8.382 8.382 0 0 1-4.26-1.043 7.055 7.055 0 0 1-2.784-2.922 9.932 9.932 0 0 1 0-8.567 7.046 7.046 0 0 1 2.784-2.919 8.382 8.382 0 0 1 4.26-1.043 8.7 8.7 0 0 1 3.756.789z" class="prefix__cls-1" data-name="Path 2" transform="translate(-41.242 -219.729)"/>
    <path id="prefix__Path_3" d="M144.393 304v16.217h-5.085v-6.31h-4.834v6.321h-5.084V304h5.085v5.841h4.834V304z" class="prefix__cls-1" data-name="Path 3" transform="translate(-93.695 -220.127)"/>
    <path id="prefix__Path_4" d="M211.252 304.115a7.874 7.874 0 0 1 3.013 2.966 8.807 8.807 0 0 1 0 8.553 7.97 7.97 0 0 1-3.035 2.977 8.7 8.7 0 0 1-8.382 0 8.04 8.04 0 0 1-3.035-2.977 8.732 8.732 0 0 1 0-8.553 7.932 7.932 0 0 1 3.035-2.966 8.8 8.8 0 0 1 8.393 0zm-6.55 4.6a3.96 3.96 0 0 0-.828 2.646 3.872 3.872 0 0 0 .828 2.624 2.925 2.925 0 0 0 2.359.974 2.859 2.859 0 0 0 2.337-.974 3.918 3.918 0 0 0 .828-2.624 4.007 4.007 0 0 0-.828-2.646 2.91 2.91 0 0 0-2.337-.974 2.954 2.954 0 0 0-2.361.976z" class="prefix__cls-1" data-name="Path 4" transform="translate(-143.879 -219.439)"/>
    <path id="prefix__Path_5" d="M284.975 304.115a7.913 7.913 0 0 1 3.013 2.966 8.829 8.829 0 0 1 0 8.553 8 8 0 0 1-3.035 2.977 8.7 8.7 0 0 1-8.385 0 8.059 8.059 0 0 1-3.035-2.977 8.732 8.732 0 0 1 0-8.553 7.951 7.951 0 0 1 3.035-2.966 8.807 8.807 0 0 1 8.4 0zm-6.553 4.6a3.96 3.96 0 0 0-.828 2.646 3.872 3.872 0 0 0 .828 2.624 2.928 2.928 0 0 0 2.359.974 2.878 2.878 0 0 0 2.337-.974 3.929 3.929 0 0 0 .828-2.624 3.982 3.982 0 0 0-.828-2.646 2.888 2.888 0 0 0-2.337-.974 2.939 2.939 0 0 0-2.358.976z" class="prefix__cls-1" data-name="Path 5" transform="translate(-197.26 -219.439)"/>
    <path id="prefix__Path_6" d="M352.89 316.38h4.9v3.849h-9.99V304h5.085z" class="prefix__cls-1" data-name="Path 6" transform="translate(-251.846 -220.127)"/>
    <path id="prefix__Path_7" d="M431.454 304.115a7.886 7.886 0 0 1 3.01 2.966 8.807 8.807 0 0 1 0 8.553 7.984 7.984 0 0 1-3.021 2.977 8.7 8.7 0 0 1-8.385 0 8.059 8.059 0 0 1-3.035-2.977 8.732 8.732 0 0 1 0-8.553 7.951 7.951 0 0 1 3.035-2.966 8.807 8.807 0 0 1 8.396 0zm-6.553 4.6a3.96 3.96 0 0 0-.828 2.646 3.872 3.872 0 0 0 .828 2.624 2.928 2.928 0 0 0 2.359.974 2.878 2.878 0 0 0 2.337-.974 3.929 3.929 0 0 0 .828-2.624 3.982 3.982 0 0 0-.828-2.646 2.892 2.892 0 0 0-2.337-.974 2.943 2.943 0 0 0-2.36.976z" class="prefix__cls-1" data-name="Path 7" transform="translate(-303.334 -219.439)"/>
    <path id="prefix__Path_8" d="M502.453 304v4.031h-6.368v2.246h4.572v3.823h-4.58v6.117H491V304z" class="prefix__cls-1" data-name="Path 8" transform="translate(-355.538 -220.127)"/>
    <path id="prefix__Path_9" d="M594.891 304l-3.7 16.228h-6.332l-1.879-9.207-1.879 9.207h-6.321L571.07 304h5.474l1.465 10.208L580.216 304h5.543l2.207 10.208L589.434 304z" class="prefix__cls-1" data-name="Path 9" transform="translate(-413.517 -220.127)"/>
    <path id="prefix__Path_10" d="M687.353 304v16.217h-5.085v-6.31h-4.834v6.321h-5.084V304h5.085v5.841h4.834V304z" class="prefix__cls-1" data-name="Path 10" transform="translate(-486.854 -220.127)"/>
    <path id="prefix__Path_11" d="M750.725 317.778h-5.4l-.8 2.45h-5.335L745.122 304h5.863l5.91 16.217h-5.361zm-1.236-3.824l-1.468-4.514-1.465 4.514z" class="prefix__cls-1" data-name="Path 11" transform="translate(-535.253 -220.127)"/>
    <path id="prefix__Path_12" d="M817.633 316.38h4.9v3.849h-9.993V304h5.093z" class="prefix__cls-1" data-name="Path 12" transform="translate(-588.365 -220.127)"/>
    <path id="prefix__Path_13" d="M867.935 308.042v2.028h5.041v3.824h-5.041v2.29h5.717v4.056h-10.8V304h10.8v4.031z" class="prefix__cls-1" data-name="Path 13" transform="translate(-624.795 -220.127)"/>
    <path id="prefix__Path_14" d="M931.194 317.292a4.928 4.928 0 0 1-2.094 1.777 7.6 7.6 0 0 1-3.275.651 8 8 0 0 1-4.8-1.363 5.022 5.022 0 0 1-2.05-3.99h5.4q.116 1.4 1.239 1.4a.93.93 0 0 0 .629-.207.745.745 0 0 0 .24-.6 1 1 0 0 0-.582-.9 11.411 11.411 0 0 0-1.89-.767 17.718 17.718 0 0 1-2.555-1.032 5.126 5.126 0 0 1-1.774-1.559 4.685 4.685 0 0 1 2.279-7.055 8.365 8.365 0 0 1 3.17-.571 7.288 7.288 0 0 1 4.627 1.349 5.1 5.1 0 0 1 1.879 3.887h-5.474q-.116-1.283-1.054-1.283a.739.739 0 0 0-.527.193.767.767 0 0 0-.207.585.979.979 0 0 0 .585.858 11.469 11.469 0 0 0 1.821.767 19.463 19.463 0 0 1 2.577 1.09 5.31 5.31 0 0 1 1.788 1.581 4.392 4.392 0 0 1 .767 2.668 4.547 4.547 0 0 1-.719 2.521z" class="prefix__cls-1" data-name="Path 14" transform="translate(-665.402 -219.458)"/>
    <path id="prefix__Path_15" d="M330.594 1.093L330.042 0l-91.2 26.048L147.182 0l-.552 1.093 75.844 53.047-.237 21.56 1.225.011.246-22.2-58.678-41.176 60.055 37.2-.248 26.152 1.225.011.254-26.839-60.3-37.335 61.561 33.3-.246 30.862 1.225.011.251-31.6-62.2-33.6 63.716 29.976-.246 35.218 1.225.008.251-36-64.344-30.277L232.818 36.6l-.246 39.089 1.225.008.254-39.914L167.822 8.3l67.741 23.559-.246 43.824 1.225.008.251-44.7L168.7 7.273 238.06 27.1l-.248 48.588 1.225.006.248-48.522 69.237-19.9-68.092 23.722.251 44.7 1.225-.008-.246-43.824L309.4 8.3l-66.225 27.481.251 39.914 1.225-.008-.245-39.087 65.608-27.178-64.345 30.271.251 36 1.228-.008-.248-35.216 63.716-29.976-62.2 33.6.251 31.6 1.225-.011-.246-30.862 61.564-33.3-60.3 37.335.254 26.839 1.225-.011-.246-26.152 60.052-37.2-58.679 41.177.248 22.2 1.225-.011-.24-21.556z" class="prefix__cls-1" data-name="Path 15" transform="translate(-106.179)"/>
</svg>
